<svg width="24" height="24" viewBox="0 0 24 24" fill="none" xmlns="http://www.w3.org/2000/svg">
<path d="M14.7188 18.3122L11.7188 22.8122C11.636 22.9365 11.5072 23.0228 11.3607 23.0522C11.2143 23.0816 11.0621 23.0515 10.9378 22.9688C10.8135 22.886 10.7272 22.7572 10.6978 22.6107C10.6684 22.4643 10.6985 22.3121 10.7812 22.1878L13.7812 17.6878C13.864 17.5635 13.9928 17.4772 14.1393 17.4478C14.2857 17.4184 14.4379 17.4485 14.5622 17.5312C14.6865 17.614 14.7728 17.7428 14.8022 17.8893C14.8316 18.0357 14.8015 18.1879 14.7188 18.3122ZM21.5625 8.625C21.5603 10.4643 20.8286 12.2275 19.5281 13.5281C18.2275 14.8286 16.4643 15.5603 14.625 15.5625H12.3009L9.46875 19.8122C9.42775 19.8737 9.37503 19.9266 9.3136 19.9678C9.25217 20.009 9.18322 20.0377 9.11071 20.0522C9.03819 20.0667 8.96352 20.0669 8.89096 20.0525C8.8184 20.0382 8.74937 20.0097 8.68781 19.9688C8.62625 19.9278 8.57338 19.875 8.53219 19.8136C8.49101 19.7522 8.46233 19.6832 8.44779 19.6107C8.43326 19.5382 8.43314 19.4635 8.44746 19.391C8.46178 19.3184 8.49025 19.2494 8.53125 19.1878L10.9491 15.5625H7.125C6.47092 15.5592 5.82477 15.419 5.2281 15.151C4.63144 14.883 4.09747 14.4931 3.66053 14.0064C3.22359 13.5196 2.89336 12.9468 2.69106 12.3248C2.48877 11.7028 2.41889 11.0453 2.48593 10.3946C2.55296 9.744 2.75543 9.11459 3.0803 8.54688C3.40517 7.97917 3.84526 7.48574 4.37227 7.09831C4.89927 6.71088 5.50153 6.43804 6.1403 6.29732C6.77908 6.1566 7.44023 6.15113 8.08125 6.28125C8.63389 4.74246 9.71172 3.44798 11.125 2.62576C12.5382 1.80353 14.1962 1.50627 15.8071 1.78632C17.4179 2.06637 18.8783 2.90578 19.9311 4.15673C20.9839 5.40769 21.5616 6.98998 21.5625 8.625ZM20.4375 8.625C20.4326 7.11487 19.8407 5.66581 18.7869 4.5841C17.7332 3.50239 16.3001 2.87278 14.7906 2.82835C13.2811 2.78391 11.8135 3.32814 10.6979 4.346C9.58234 5.36385 8.90624 6.77558 8.8125 8.28281C8.8038 8.432 8.73619 8.57161 8.62455 8.67095C8.5129 8.77028 8.36637 8.8212 8.21719 8.8125C8.068 8.8038 7.92839 8.73619 7.82905 8.62455C7.72971 8.5129 7.6788 8.36637 7.6875 8.21719C7.70409 7.93419 7.73758 7.65244 7.78781 7.37344C7.30096 7.28222 6.80043 7.29353 6.31819 7.40664C5.83596 7.51976 5.38261 7.73219 4.9871 8.03038C4.59158 8.32857 4.2626 8.70596 4.02115 9.13846C3.7797 9.57095 3.6311 10.049 3.58483 10.5422C3.53855 11.0354 3.59563 11.5328 3.75241 12.0026C3.90919 12.4725 4.16223 12.9045 4.49537 13.271C4.82851 13.6376 5.23443 13.9306 5.68721 14.1315C6.13999 14.3323 6.62967 14.4366 7.125 14.4375H14.625C16.166 14.4358 17.6435 13.8228 18.7331 12.7331C19.8228 11.6435 20.4358 10.166 20.4375 8.625Z" fill="#3B3B54"/>
</svg>
