<svg width="24" height="24" viewBox="0 0 24 24" fill="none" xmlns="http://www.w3.org/2000/svg">
<path d="M16.1747 4.59937C15.0264 3.27299 13.7344 2.07817 12.3225 1.03687C12.228 0.970722 12.1154 0.935242 12 0.935242C11.8846 0.935242 11.772 0.970722 11.6775 1.03687C10.2656 2.07817 8.97359 3.27299 7.82531 4.59937C5.28188 7.52437 3.9375 10.6022 3.9375 13.5C3.9375 15.6383 4.78694 17.689 6.29895 19.201C7.81096 20.7131 9.86169 21.5625 12 21.5625C14.1383 21.5625 16.189 20.7131 17.701 19.201C19.2131 17.689 20.0625 15.6383 20.0625 13.5C20.0625 10.6022 18.7181 7.52437 16.1747 4.59937ZM12 20.4375C10.1607 20.4353 8.39746 19.7036 7.09691 18.4031C5.79636 17.1025 5.06473 15.3393 5.0625 13.5C5.0625 7.91062 10.5938 3.28781 12 2.20219C13.4062 3.28781 18.9375 7.91062 18.9375 13.5C18.9353 15.3393 18.2036 17.1025 16.9031 18.4031C15.6025 19.7036 13.8393 20.4353 12 20.4375ZM17.055 14.3437C16.8674 15.3919 16.3632 16.3574 15.6103 17.1103C14.8574 17.8632 13.8919 18.3674 12.8438 18.555C12.8127 18.5597 12.7814 18.5622 12.75 18.5625C12.6086 18.5631 12.4721 18.5103 12.3678 18.4148C12.2635 18.3193 12.1991 18.188 12.1872 18.047C12.1754 17.9061 12.2171 17.7659 12.304 17.6543C12.391 17.5427 12.5167 17.468 12.6562 17.445C14.2856 17.1712 15.6684 15.7875 15.945 14.1562C15.9699 14.0091 16.0522 13.8778 16.1738 13.7913C16.2341 13.7484 16.3022 13.7179 16.3742 13.7014C16.4463 13.6849 16.5209 13.6827 16.5938 13.695C16.6666 13.7073 16.7364 13.7339 16.799 13.7731C16.8616 13.8124 16.9159 13.8636 16.9587 13.9238C17.0016 13.9841 17.0321 14.0522 17.0486 14.1242C17.0651 14.1963 17.0673 14.2709 17.055 14.3437Z" fill="#3B3B54"/>
</svg>
